# xmcd
#
# Track frame offsets: 
#        150
#        9626
#        20782
#        49509
#        72050
#        84338
#        98606
#        109555
#        139292
#        168699
#        182168
#        194803
#        211789
#        267047
#        292931
#
# Disc length: 4106 seconds
#
# Revision: 0
# Processed by: cddbd v1.5.1PL0 Copyright (c) Steve Scherf et al.
# Submitted via: ExactAudioCopy v0.95a5
#
DISCID=cf10080f
DTITLE=Various Artist - Uncut 2005.05B Bring It On Home
DYEAR=2005
DGENRE=Blues
TTITLE0=Solomon Burke - Home In Your Heart
TTITLE1=Vernon Garrett - Shine It On
TTITLE2=Tinariwen - Imidiwaren
TTITLE3=Staple Singers, The - Too Close
TTITLE4=Otis Rush - Double Trouble
TTITLE5=Blind Lemon Jefferson - Matchbox Blues
TTITLE6=Black Keys, The - Grown So Ugly
TTITLE7=Scott Walker - Farmer In The City
TTITLE8=Berber Tribesmen, The - Untitled
TTITLE9=Ralph Stanley - Oh Death
TTITLE10=Bukka White - Fixin' To Die Blues
TTITLE11=Robert Plant And The Strange Sensation - Somebody Knocking
TTITLE12=Roy Harper With Jimmy Page - The Same Old Rock
TTITLE13=Tartit - Ikbayene
TTITLE14=King Solomon Hill - The Gone Dead Train
EXTD=
EXTT0=
EXTT1=
EXTT2=
EXTT3=
EXTT4=
EXTT5=
EXTT6=
EXTT7=
EXTT8=
EXTT9=
EXTT10=
EXTT11=
EXTT12=
EXTT13=
EXTT14=
PLAYORDER=
